<?xml version="1.0" standalone="no"?>
<!DOCTYPE svg PUBLIC "-//W3C//DTD SVG 20010904//EN"
 "http://www.w3.org/TR/2001/REC-SVG-20010904/DTD/svg10.dtd">
<svg version="1.0" xmlns="http://www.w3.org/2000/svg"
 width="512.000000pt" height="512.000000pt" viewBox="0 0 512.000000 512.000000"
 preserveAspectRatio="xMidYMid meet">
<metadata>
Created by potrace 1.14, written by Peter Selinger 2001-2017
</metadata>
<g transform="translate(0.000000,512.000000) scale(0.100000,-0.100000)"
fill="#000000" stroke="none">
<path d="M2558 4698 l-3 -423 -110 -6 c-354 -20 -704 -160 -985 -395 -541
-450 -748 -1190 -524 -1864 217 -650 829 -1120 1509 -1159 l110 -6 3 -422 2
-423 158 0 158 0 11 91 c15 114 47 183 114 243 61 55 140 86 218 86 120 0 206
-47 292 -159 47 -62 55 -69 73 -59 26 14 520 299 523 302 2 1 -13 40 -32 87
-28 69 -35 97 -35 156 0 132 61 238 171 298 45 24 69 30 140 33 80 4 92 2 174
-32 49 -20 90 -35 91 -33 7 7 303 524 306 533 2 7 -31 39 -74 72 -63 51 -82
72 -110 129 -30 62 -33 76 -33 158 0 78 4 97 27 140 34 65 100 129 161 155 27
12 88 27 138 33 l89 11 0 316 0 316 -91 11 c-114 15 -183 47 -243 114 -55 61
-86 140 -86 218 0 120 46 205 159 291 63 48 69 55 59 74 -14 26 -299 520 -302
523 -1 2 -40 -13 -87 -32 -69 -28 -97 -35 -156 -35 -132 0 -238 61 -298 171
-24 45 -30 69 -33 140 -4 80 -2 92 32 174 20 49 35 90 33 91 -7 6 -524 303
-533 306 -6 2 -38 -31 -72 -74 -50 -62 -73 -82 -127 -109 -132 -65 -275 -47
-377 49 -65 61 -96 129 -111 241 l-11 91 -158 0 -158 0 -2 -422z m318 -1475
c68 -31 124 -60 124 -63 0 -4 -99 -220 -221 -481 -121 -261 -259 -557 -306
-659 -47 -102 -86 -186 -88 -188 -5 -5 -265 122 -265 130 0 8 222 486 515
1111 54 114 102 207 108 207 5 0 65 -26 133 -57z m-839 -195 l103 -103 -182
-182 -183 -183 183 -183 182 -182 -105 -105 -105 -105 -288 288 -287 287 285
285 c157 157 287 285 290 285 2 0 51 -46 107 -102z m1443 -183 l285 -285 -287
-287 -288 -288 -105 105 -105 105 182 182 183 183 -183 183 -182 182 102 103
c57 56 105 102 108 102 3 0 133 -128 290 -285z"/>
</g>
</svg>
